<svg width="290" height="121" viewBox="0 0 290 121" fill="none" xmlns="http://www.w3.org/2000/svg">
<g opacity="0.24" clip-path="url(#clip0)">
<path d="M262.012 28.6192C271.03 28.6192 271.03 13.4036 280.048 13.4036V120.796H-351.205V110.675C-341.436 110.675 -342.188 116.272 -333.17 116.272C-324.152 116.272 -324.152 100.377 -315.134 100.377C-306.116 100.377 -307.619 105.268 -297.098 105.268C-286.577 105.268 -289.583 114.425 -279.062 114.425C-268.541 114.425 -270.796 110.947 -261.026 110.947C-251.257 110.947 -253.136 94.3727 -242.991 94.3727C-232.845 94.3727 -235.476 99.7797 -224.955 99.7797C-214.434 99.7797 -216.313 107.225 -206.919 107.225C-197.525 107.225 -199.028 82.499 -188.883 82.499C-178.738 82.499 -179.865 91.0578 -170.847 91.0578C-161.829 91.0578 -163.332 79.0755 -152.811 79.0755C-142.291 79.0755 -144.545 86.7377 -134.776 86.7377C-125.006 86.7377 -126.509 55.4097 -116.74 55.4097C-106.97 55.4097 -108.849 64.1315 -98.704 64.1315C-88.5589 64.1315 -91.1891 69.8918 -80.6682 69.8918C-70.1473 69.8918 -72.7775 54.9478 -62.6324 54.9478C-52.4872 54.9478 -55.1174 62.2839 -44.5966 62.2839C-34.0757 62.2839 -35.9544 50.1929 -26.5607 50.1929C-17.1671 50.1929 -18.2943 29.9778 -8.5249 29.9778C1.24448 29.9778 -0.258514 63.8055 9.51089 63.8055C19.2803 63.8055 18.1531 40.1125 27.5467 40.1125C36.9404 40.1125 35.0616 50.4918 45.5825 50.4918C56.1034 50.4918 53.849 59.8114 63.6183 59.8114C73.3878 59.8114 72.2605 44.3783 81.6542 44.3783C91.0478 44.3783 90.2963 59.0506 99.69 59.0506C109.084 59.0506 107.956 52.5296 117.726 52.5296C127.495 52.5296 125.992 39.08 135.762 39.08C145.531 39.08 144.028 44.4598 153.797 44.4598C163.567 44.4598 162.815 24.8153 171.833 24.8153C180.851 24.8153 179.348 51.7416 189.869 51.7416C200.39 51.7416 197.76 33.4557 207.905 33.4557C218.05 33.4557 216.547 40.982 225.941 40.982C235.334 40.982 234.583 22.2341 243.977 22.2341C253.37 22.2341 252.994 28.6192 262.012 28.6192Z" fill="#E289F2"/>
</g>
<g clip-path="url(#clip1)">
<path d="M280.048 13.4036C271.03 13.4036 271.03 28.6193 262.012 28.6193C252.994 28.6193 253.37 22.2342 243.977 22.2342C234.583 22.2342 235.334 40.982 225.941 40.982C216.547 40.982 218.05 33.4557 207.905 33.4557C197.76 33.4557 200.39 51.7417 189.869 51.7417C179.348 51.7417 180.851 24.8154 171.833 24.8154C162.815 24.8154 163.567 44.4599 153.797 44.4599C144.028 44.4599 145.531 39.0801 135.762 39.0801C125.992 39.0801 127.495 52.5296 117.726 52.5296C107.956 52.5296 109.084 59.0507 99.69 59.0507C90.2963 59.0507 91.0478 44.3784 81.6542 44.3784C72.2605 44.3784 73.3878 59.8114 63.6184 59.8114C53.849 59.8114 56.1034 50.4918 45.5825 50.4918C35.0616 50.4918 36.9404 40.1126 27.5467 40.1126C18.1531 40.1126 19.2803 63.8055 9.5109 63.8055C-0.258501 63.8055 1.24448 29.9778 -8.52492 29.9778C-18.2943 29.9778 -17.1671 50.193 -26.5607 50.193C-35.9544 50.193 -34.0757 62.284 -44.5966 62.284C-55.1174 62.284 -52.4872 54.9479 -62.6324 54.9479C-72.7775 54.9479 -70.1473 69.8918 -80.6682 69.8918C-91.1891 69.8918 -88.5589 64.1316 -98.704 64.1316C-108.849 64.1316 -106.97 55.4098 -116.74 55.4098C-126.509 55.4098 -125.006 86.7377 -134.776 86.7377C-144.545 86.7377 -142.291 79.0756 -152.811 79.0756C-163.332 79.0756 -161.829 91.0579 -170.847 91.0579C-179.865 91.0579 -178.738 82.4991 -188.883 82.4991C-199.028 82.4991 -197.525 107.225 -206.919 107.225C-216.313 107.225 -214.434 99.7798 -224.955 99.7798C-235.476 99.7798 -232.845 94.3728 -242.991 94.3728C-253.136 94.3728 -251.257 110.947 -261.026 110.947C-270.796 110.947 -268.541 114.425 -279.062 114.425C-289.583 114.425 -286.577 105.268 -297.098 105.268C-307.619 105.268 -306.116 100.378 -315.134 100.378C-324.152 100.378 -324.152 116.272 -333.17 116.272C-342.188 116.272 -341.436 110.675 -351.205 110.675" stroke="#855CF8" stroke-width="0.751492"/>
</g>
<rect x="0.375746" y="-0.375746" width="6.76343" height="6.76343" rx="3.38172" transform="matrix(-1 0 0 1 265.77 25.4114)" fill="#855CF8" stroke="white" stroke-width="0.751492"/>
<rect x="0.375746" y="-0.375746" width="6.76343" height="6.76343" rx="3.38172" transform="matrix(-1 0 0 1 247.734 19.0024)" fill="#855CF8" stroke="white" stroke-width="0.751492"/>
<rect x="0.375746" y="-0.375746" width="6.76343" height="6.76343" rx="3.38172" transform="matrix(-1 0 0 1 229.698 37.8523)" fill="#855CF8" stroke="white" stroke-width="0.751492"/>
<rect x="0.375746" y="-0.375746" width="6.76343" height="6.76343" rx="3.38172" transform="matrix(-1 0 0 1 211.662 30.3123)" fill="#855CF8" stroke="white" stroke-width="0.751492"/>
<rect x="0.375746" y="-0.375746" width="6.76343" height="6.76343" rx="3.38172" transform="matrix(-1 0 0 1 283.806 9.95459)" fill="#855CF8" stroke="white" stroke-width="0.751492"/>
<rect x="0.375746" y="-0.375746" width="6.76343" height="6.76343" rx="3.38172" transform="matrix(-1 0 0 1 175.591 21.6414)" fill="#855CF8" stroke="white" stroke-width="0.751492"/>
<rect x="0.375746" y="-0.375746" width="6.76343" height="6.76343" rx="3.38172" transform="matrix(-1 0 0 1 157.555 41.6223)" fill="#855CF8" stroke="white" stroke-width="0.751492"/>
<rect x="0.375746" y="-0.375746" width="6.76343" height="6.76343" rx="3.38172" transform="matrix(-1 0 0 1 139.519 36.3443)" fill="#855CF8" stroke="white" stroke-width="0.751492"/>
<rect x="0.375746" y="-0.375746" width="6.76343" height="6.76343" rx="3.38172" transform="matrix(-1 0 0 1 121.483 49.5391)" fill="#855CF8" stroke="white" stroke-width="0.751492"/>
<rect x="0.375746" y="-0.375746" width="6.76343" height="6.76343" rx="3.38172" transform="matrix(-1 0 0 1 193.626 48.7851)" fill="#855CF8" stroke="white" stroke-width="0.751492"/>
<rect x="0.375746" y="-0.375746" width="6.76343" height="6.76343" rx="3.38172" transform="matrix(-1 0 0 1 85.4116 41.2452)" fill="#855CF8" stroke="white" stroke-width="0.751492"/>
<rect x="0.375746" y="-0.375746" width="6.76343" height="6.76343" rx="3.38172" transform="matrix(-1 0 0 1 67.3758 56.702)" fill="#855CF8" stroke="white" stroke-width="0.751492"/>
<rect x="0.375746" y="-0.375746" width="6.76343" height="6.76343" rx="3.38172" transform="matrix(-1 0 0 1 49.34 47.6542)" fill="#855CF8" stroke="white" stroke-width="0.751492"/>
<rect x="0.375746" y="-0.375746" width="6.76343" height="6.76343" rx="3.38172" transform="matrix(-1 0 0 1 31.3041 37.0982)" fill="#855CF8" stroke="white" stroke-width="0.751492"/>
<rect x="0.375746" y="-0.375746" width="6.76343" height="6.76343" rx="3.38172" transform="matrix(-1 0 0 1 13.2683 60.8489)" fill="#855CF8" stroke="white" stroke-width="0.751492"/>
<rect x="0.375746" y="-0.375746" width="6.76343" height="6.76343" rx="3.38172" transform="matrix(-1 0 0 1 103.447 56.3251)" fill="#855CF8" stroke="white" stroke-width="0.751492"/>
<defs>
<clipPath id="clip0">
<rect width="270.904" height="107.393" fill="white" transform="matrix(-1 0 0 1 280.048 13.4036)"/>
</clipPath>
<clipPath id="clip1">
<rect width="270.904" height="107.444" fill="white" transform="matrix(-1 0 0 1 280.048 13.3525)"/>
</clipPath>
</defs>
</svg>
